PathFileType	4	(X/Y/Z)	c:/Users/goper/Files/vsCode/490R/osim_files/C15/C15_SSWS_03.trc
DataRate	CameraRate	NumFrames	NumMarkers	Units                	OrigDataRate	OrigDataStartFrame	OrigNumFrames
250.00	250.00	5	36	mm	250.0	1959	3133
                Frame#	Time	LPSIS			LASIS			LTH1			LTH2			LTH3			LTH4			LLFE			LMFE			LSH1			LSH2			LSH3			LSH4			LLMAL			LMMAL			LCAL			LMTP5			LTOE			LMTP1			RPSIS			RASIS			RTH1			RTH2			RTH3			RTH4			RLFE			RMFE			RSH1			RSH2			RSH3			RSH4			RLMAL			RMMAL			RCAL			RMTP1			RTOE			RMTP5		
		X1	Y1	Z1	X2	Y2	Z2	X3	Y3	Z3	X4	Y4	Z4	X5	Y5	Z5	X6	Y6	Z6	X7	Y7	Z7	X8	Y8	Z8	X9	Y9	Z9	X10	Y10	Z10	X11	Y11	Z11	X12	Y12	Z12	X13	Y13	Z13	X14	Y14	Z14	X15	Y15	Z15	X16	Y16	Z16	X17	Y17	Z17	X18	Y18	Z18	X19	Y19	Z19	X20	Y20	Z20	X21	Y21	Z21	X22	Y22	Z22	X23	Y23	Z23	X24	Y24	Z24	X25	Y25	Z25	X26	Y26	Z26	X27	Y27	Z27	X28	Y28	Z28	X29	Y29	Z29	X30	Y30	Z30	X31	Y31	Z31	X32	Y32	Z32	X33	Y33	Z33	X34	Y34	Z34	X35	Y35	Z35	X36	Y36	Z36

1959	7.83200	-830.41431	1027.46252	311.06396	-996.27832	1006.14941	374.42239	-927.97809	611.02960	422.52243	-927.41821	566.07666	404.75247	-977.33142	621.90051	418.39514	-979.12872	576.95490	407.76852	-942.87567	491.16620	384.48434	-943.05890	481.25952	263.13666	-873.00330	387.03610	394.93619	-866.87073	343.08194	398.87286	-932.70648	375.74722	392.30121	-919.56738	333.01593	395.10498	-848.35522	86.12780	327.40442	-868.10889	112.49006	238.35429	-785.47589	64.06370	278.93420	-964.95673	39.06961	350.44873	-1023.67719	58.95879	287.78232	-984.34283	33.40000	229.38002	-829.98779	1024.92627	190.55576	-985.79877	1004.50543	125.64422	-1035.81799	649.60248	51.34904	-1053.31958	606.24298	58.19059	-1093.34424	667.08813	61.99451	-1103.03247	620.27917	63.86110	-1087.99475	519.65607	82.71275	-1081.94421	499.26010	202.91751	-970.71881	478.44058	81.24251	-944.51361	443.78326	77.36231	-1014.43060	434.48502	70.30664	-981.93274	409.85699	65.03320	-806.58081	214.09288	128.48871	-856.48383	208.39796	207.74121	-751.60016	231.34262	184.45648	-895.97876	85.44664	197.19319	-926.99298	81.81772	138.77180	-850.74158	94.45871	88.46311
1960	7.83600	-833.80969	1027.56421	310.97983	-999.44159	1006.11938	374.85312	-929.61884	611.07013	422.51779	-928.80573	567.75763	407.21393	-978.92883	621.84521	418.50775	-980.45300	576.83234	407.88004	-943.95038	491.14120	384.56805	-944.20331	481.20340	263.19406	-873.65851	387.19244	394.91061	-867.45801	343.22363	398.81689	-933.27869	375.60989	392.34802	-920.11249	333.05231	395.14972	-848.42810	86.24532	327.31943	-868.33771	112.63364	238.30479	-785.47784	64.23318	278.86133	-964.96118	39.06158	350.43994	-1023.67950	58.92855	287.78317	-983.54614	32.97758	229.74068	-833.51270	1025.12268	190.48444	-989.61267	1004.87140	125.95844	-1041.15747	650.61896	51.48440	-1058.66943	607.18781	58.27638	-1098.56641	668.31335	62.14012	-1108.39233	621.59351	64.12243	-1093.75781	520.84766	83.04513	-1087.93176	500.33020	203.17731	-976.68811	477.83093	81.59514	-951.07751	442.75558	77.66671	-1021.05817	434.64093	70.48439	-989.11322	409.46518	65.25283	-817.26349	210.48537	128.56693	-867.40167	205.48880	207.68245	-761.85602	226.23204	184.69185	-909.47614	83.56657	196.50322	-940.99042	80.82899	138.10846	-864.14380	92.08074	87.91349
1961	7.84000	-837.04724	1027.68774	310.96625	-1002.60645	1006.10266	375.14041	-931.12225	611.13800	422.50067	-930.18280	568.11938	407.82321	-980.48016	621.67047	418.50180	-981.94299	576.71826	407.93655	-944.99371	491.10303	384.62653	-945.23499	481.17636	263.23129	-874.01172	387.12854	394.47781	-868.09967	343.36780	398.83118	-933.90063	375.83243	392.43173	-920.74200	333.08112	395.15482	-848.57935	86.38866	327.24701	-868.33112	112.78720	238.18369	-785.54053	64.39437	278.80954	-964.95361	39.06580	350.44452	-1023.72217	58.88873	287.79642	-983.63116	32.99905	229.70816	-837.14380	1025.35181	190.45221	-993.46838	1005.19733	126.25420	-1046.33069	651.41174	51.57732	-1064.07031	608.22333	58.46254	-1103.56348	669.37958	62.36644	-1113.76233	622.81024	64.42884	-1099.61316	521.98138	83.42319	-1093.85425	501.35803	203.43567	-982.70740	477.12140	81.87219	-957.64423	441.62695	78.01860	-1027.86414	434.79684	70.63325	-996.35022	408.97968	65.44374	-828.11060	206.73103	128.63536	-878.24408	202.50250	207.59799	-772.48981	221.31053	184.92253	-923.17340	81.65768	195.79222	-954.72363	79.87740	137.29076	-877.89832	89.88641	87.21503
1962	7.84400	-840.39886	1027.68152	310.83633	-1005.74194	1005.99133	375.49945	-932.76044	611.18188	422.54620	-931.53571	567.72681	407.28073	-982.12677	621.59924	418.58356	-983.32629	576.59515	407.98859	-946.12195	491.08719	384.71539	-946.52203	481.08798	263.28546	-875.09869	387.48062	394.89377	-868.78369	343.55139	398.83478	-934.63635	375.81302	392.53586	-921.32227	333.09296	395.20444	-848.71954	86.53681	327.17233	-868.08533	112.71544	238.10016	-785.64111	64.51537	278.79944	-964.97876	39.05424	350.43573	-1023.76514	58.84380	287.81030	-983.62396	32.98670	229.70419	-840.78455	1025.46753	190.38042	-997.37268	1005.52069	126.60135	-1051.45947	652.27869	51.86668	-1069.53296	609.15253	58.69694	-1108.51404	670.33350	62.50912	-1119.09094	623.98694	64.74747	-1105.22534	523.06573	83.88815	-1099.71265	502.38568	203.74835	-988.40784	476.31311	82.21727	-964.21436	440.32840	78.31256	-1034.45093	434.84265	70.83508	-1003.49652	408.43082	65.66457	-839.09961	202.93607	128.61279	-889.45551	199.34790	207.51305	-782.93384	215.87318	185.53680	-937.65021	78.98329	196.63329	-968.53094	78.99679	136.53027	-891.08496	87.45430	86.72772
1963	7.84800	-843.77808	1027.71570	310.75705	-1008.96484	1005.90057	375.82242	-934.43182	611.23956	422.49725	-932.95099	567.81726	407.24918	-983.79486	621.42279	418.56604	-984.87793	576.47614	408.05527	-947.28839	491.02756	384.78040	-947.60620	481.03055	263.34927	-875.89673	387.59622	394.86798	-869.41461	343.69983	398.79950	-935.37555	375.81476	392.52203	-921.93481	333.12082	395.27863	-848.85376	86.70243	327.07074	-868.27832	112.86205	238.05243	-785.69489	64.65052	278.77463	-964.99384	39.05753	350.43881	-1023.66150	58.75586	287.85248	-983.64679	32.99949	229.69351	-844.42462	1025.61499	190.27229	-1001.28595	1005.85052	126.91176	-1056.51831	653.04132	51.96662	-1074.77429	609.97626	58.93251	-1113.25085	671.16528	62.58662	-1124.27991	625.12122	65.08507	-1110.79431	524.12970	84.22511	-1105.48132	503.30771	204.00304	-994.71686	475.02145	82.59894	-970.79657	438.90131	78.58797	-1041.17639	434.84885	71.06122	-1010.58124	407.78476	65.86359	-850.21136	199.01892	128.63318	-900.75800	196.23055	207.37962	-793.95160	210.41412	185.72861	-950.21375	76.25524	195.14153	-982.39777	78.25319	135.73732	-904.89349	84.97717	86.11533
